<mxfile host="app.diagrams.net" modified="2023-11-28T11:55:04.838Z" agent="Mozilla/5.0 (Macintosh; Intel Mac OS X 10_15_7) AppleWebKit/537.36 (KHTML, like Gecko) Chrome/119.0.0.0 Safari/537.36" etag="AvRy_RBlNelYrrUV1W8s" version="22.1.4" type="device">
  <diagram id="C5RBs43oDa-KdzZeNtuy" name="Page-1">
    <mxGraphModel dx="1681" dy="855" grid="1" gridSize="10" guides="1" tooltips="1" connect="1" arrows="1" fold="1" page="1" pageScale="1" pageWidth="827" pageHeight="1169" math="0" shadow="0">
      <root>
        <mxCell id="WIyWlLk6GJQsqaUBKTNV-0" />
        <mxCell id="WIyWlLk6GJQsqaUBKTNV-1" parent="WIyWlLk6GJQsqaUBKTNV-0" />
        <mxCell id="WIyWlLk6GJQsqaUBKTNV-2" value="" style="rounded=0;html=1;jettySize=auto;orthogonalLoop=1;fontSize=11;endArrow=block;endFill=0;endSize=8;strokeWidth=1;shadow=0;labelBackgroundColor=none;edgeStyle=orthogonalEdgeStyle;entryX=0.5;entryY=0;entryDx=0;entryDy=0;" parent="WIyWlLk6GJQsqaUBKTNV-1" source="WIyWlLk6GJQsqaUBKTNV-3" target="aZWMBut40UA3kC536MLn-1" edge="1">
          <mxGeometry relative="1" as="geometry" />
        </mxCell>
        <mxCell id="WIyWlLk6GJQsqaUBKTNV-3" value="input-vector.py çalıştır" style="rounded=1;whiteSpace=wrap;html=1;fontSize=12;glass=0;strokeWidth=1;shadow=0;" parent="WIyWlLk6GJQsqaUBKTNV-1" vertex="1">
          <mxGeometry x="200" y="80" width="120" height="40" as="geometry" />
        </mxCell>
        <mxCell id="aZWMBut40UA3kC536MLn-1" value="Web uygulaması URL adresini gir" style="shape=parallelogram;perimeter=parallelogramPerimeter;whiteSpace=wrap;html=1;fixedSize=1;" vertex="1" parent="WIyWlLk6GJQsqaUBKTNV-1">
          <mxGeometry x="187" y="180" width="146" height="50" as="geometry" />
        </mxCell>
        <mxCell id="aZWMBut40UA3kC536MLn-7" value="hidden element False mu?" style="rhombus;whiteSpace=wrap;html=1;" vertex="1" parent="WIyWlLk6GJQsqaUBKTNV-1">
          <mxGeometry x="470" y="485" width="137" height="100" as="geometry" />
        </mxCell>
        <mxCell id="aZWMBut40UA3kC536MLn-9" value="Evet" style="endArrow=classic;html=1;rounded=0;exitX=1;exitY=0.5;exitDx=0;exitDy=0;" edge="1" parent="WIyWlLk6GJQsqaUBKTNV-1" source="aZWMBut40UA3kC536MLn-7" target="aZWMBut40UA3kC536MLn-10">
          <mxGeometry width="50" height="50" relative="1" as="geometry">
            <mxPoint x="629" y="460" as="sourcePoint" />
            <mxPoint x="689" y="460" as="targetPoint" />
          </mxGeometry>
        </mxCell>
        <mxCell id="aZWMBut40UA3kC536MLn-10" value="hidden = 0" style="shape=process;whiteSpace=wrap;html=1;backgroundOutline=1;" vertex="1" parent="WIyWlLk6GJQsqaUBKTNV-1">
          <mxGeometry x="660" y="525" width="110" height="20" as="geometry" />
        </mxCell>
        <mxCell id="aZWMBut40UA3kC536MLn-11" value="Hayır" style="endArrow=classic;html=1;rounded=0;exitX=0.5;exitY=1;exitDx=0;exitDy=0;" edge="1" parent="WIyWlLk6GJQsqaUBKTNV-1" target="aZWMBut40UA3kC536MLn-12" source="aZWMBut40UA3kC536MLn-7">
          <mxGeometry width="50" height="50" relative="1" as="geometry">
            <mxPoint x="309" y="460" as="sourcePoint" />
            <mxPoint x="350" y="460" as="targetPoint" />
          </mxGeometry>
        </mxCell>
        <mxCell id="aZWMBut40UA3kC536MLn-12" value="hidden = 1" style="shape=process;whiteSpace=wrap;html=1;backgroundOutline=1;" vertex="1" parent="WIyWlLk6GJQsqaUBKTNV-1">
          <mxGeometry x="483.5" y="640" width="110" height="20" as="geometry" />
        </mxCell>
        <mxCell id="aZWMBut40UA3kC536MLn-14" value="Çıktıları değerlendir." style="rounded=1;whiteSpace=wrap;html=1;" vertex="1" parent="WIyWlLk6GJQsqaUBKTNV-1">
          <mxGeometry x="200" y="260" width="120" height="30" as="geometry" />
        </mxCell>
        <mxCell id="aZWMBut40UA3kC536MLn-15" value="" style="endArrow=classic;html=1;rounded=0;exitX=0.5;exitY=1;exitDx=0;exitDy=0;entryX=0.5;entryY=0;entryDx=0;entryDy=0;" edge="1" parent="WIyWlLk6GJQsqaUBKTNV-1" source="aZWMBut40UA3kC536MLn-1" target="aZWMBut40UA3kC536MLn-14">
          <mxGeometry width="50" height="50" relative="1" as="geometry">
            <mxPoint x="320" y="300" as="sourcePoint" />
            <mxPoint x="370" y="250" as="targetPoint" />
          </mxGeometry>
        </mxCell>
        <mxCell id="aZWMBut40UA3kC536MLn-16" value="" style="endArrow=classic;html=1;rounded=0;exitX=0.5;exitY=1;exitDx=0;exitDy=0;entryX=0.5;entryY=0;entryDx=0;entryDy=0;" edge="1" parent="WIyWlLk6GJQsqaUBKTNV-1" source="aZWMBut40UA3kC536MLn-14" target="aZWMBut40UA3kC536MLn-7">
          <mxGeometry width="50" height="50" relative="1" as="geometry">
            <mxPoint x="320" y="300" as="sourcePoint" />
            <mxPoint x="260" y="420" as="targetPoint" />
          </mxGeometry>
        </mxCell>
        <mxCell id="aZWMBut40UA3kC536MLn-17" value="" style="endArrow=classic;html=1;rounded=0;exitX=1;exitY=0.5;exitDx=0;exitDy=0;entryX=0.5;entryY=0;entryDx=0;entryDy=0;" edge="1" parent="WIyWlLk6GJQsqaUBKTNV-1" source="aZWMBut40UA3kC536MLn-14" target="aZWMBut40UA3kC536MLn-18">
          <mxGeometry width="50" height="50" relative="1" as="geometry">
            <mxPoint x="320" y="300" as="sourcePoint" />
            <mxPoint x="400" y="340" as="targetPoint" />
          </mxGeometry>
        </mxCell>
        <mxCell id="aZWMBut40UA3kC536MLn-18" value="Form element False mu" style="rhombus;whiteSpace=wrap;html=1;" vertex="1" parent="WIyWlLk6GJQsqaUBKTNV-1">
          <mxGeometry x="499" y="270" width="137" height="100" as="geometry" />
        </mxCell>
        <mxCell id="aZWMBut40UA3kC536MLn-19" value="Evet" style="endArrow=classic;html=1;rounded=0;exitX=1;exitY=0.5;exitDx=0;exitDy=0;" edge="1" parent="WIyWlLk6GJQsqaUBKTNV-1" source="aZWMBut40UA3kC536MLn-18" target="aZWMBut40UA3kC536MLn-20">
          <mxGeometry width="50" height="50" relative="1" as="geometry">
            <mxPoint x="617" y="320" as="sourcePoint" />
            <mxPoint x="677" y="320" as="targetPoint" />
          </mxGeometry>
        </mxCell>
        <mxCell id="aZWMBut40UA3kC536MLn-20" value="form = 0" style="shape=process;whiteSpace=wrap;html=1;backgroundOutline=1;" vertex="1" parent="WIyWlLk6GJQsqaUBKTNV-1">
          <mxGeometry x="687" y="310" width="110" height="20" as="geometry" />
        </mxCell>
        <mxCell id="aZWMBut40UA3kC536MLn-21" value="Hayır" style="endArrow=classic;html=1;rounded=0;exitX=0.5;exitY=1;exitDx=0;exitDy=0;" edge="1" parent="WIyWlLk6GJQsqaUBKTNV-1" source="aZWMBut40UA3kC536MLn-18" target="aZWMBut40UA3kC536MLn-22">
          <mxGeometry width="50" height="50" relative="1" as="geometry">
            <mxPoint x="297" y="320" as="sourcePoint" />
            <mxPoint x="338" y="320" as="targetPoint" />
          </mxGeometry>
        </mxCell>
        <mxCell id="aZWMBut40UA3kC536MLn-22" value="form = 1" style="shape=process;whiteSpace=wrap;html=1;backgroundOutline=1;" vertex="1" parent="WIyWlLk6GJQsqaUBKTNV-1">
          <mxGeometry x="512.5" y="410" width="110" height="20" as="geometry" />
        </mxCell>
        <mxCell id="aZWMBut40UA3kC536MLn-23" value="" style="endArrow=classic;html=1;rounded=0;exitX=0;exitY=0.25;exitDx=0;exitDy=0;entryX=0.5;entryY=0;entryDx=0;entryDy=0;" edge="1" parent="WIyWlLk6GJQsqaUBKTNV-1" target="aZWMBut40UA3kC536MLn-24" source="aZWMBut40UA3kC536MLn-14">
          <mxGeometry width="50" height="50" relative="1" as="geometry">
            <mxPoint x="155" y="252.5" as="sourcePoint" />
            <mxPoint x="-234" y="290" as="targetPoint" />
          </mxGeometry>
        </mxCell>
        <mxCell id="aZWMBut40UA3kC536MLn-24" value="File upload false mu" style="rhombus;whiteSpace=wrap;html=1;" vertex="1" parent="WIyWlLk6GJQsqaUBKTNV-1">
          <mxGeometry x="-143" y="270" width="137" height="100" as="geometry" />
        </mxCell>
        <mxCell id="aZWMBut40UA3kC536MLn-25" value="Evet" style="endArrow=classic;html=1;rounded=0;exitX=1;exitY=0.5;exitDx=0;exitDy=0;" edge="1" parent="WIyWlLk6GJQsqaUBKTNV-1" source="aZWMBut40UA3kC536MLn-24" target="aZWMBut40UA3kC536MLn-26">
          <mxGeometry width="50" height="50" relative="1" as="geometry">
            <mxPoint x="-25" y="320" as="sourcePoint" />
            <mxPoint x="35" y="320" as="targetPoint" />
          </mxGeometry>
        </mxCell>
        <mxCell id="aZWMBut40UA3kC536MLn-26" value="file = 0" style="shape=process;whiteSpace=wrap;html=1;backgroundOutline=1;" vertex="1" parent="WIyWlLk6GJQsqaUBKTNV-1">
          <mxGeometry x="45" y="310" width="110" height="20" as="geometry" />
        </mxCell>
        <mxCell id="aZWMBut40UA3kC536MLn-27" value="Hayır" style="endArrow=classic;html=1;rounded=0;exitX=0.5;exitY=1;exitDx=0;exitDy=0;" edge="1" parent="WIyWlLk6GJQsqaUBKTNV-1" source="aZWMBut40UA3kC536MLn-24" target="aZWMBut40UA3kC536MLn-28">
          <mxGeometry width="50" height="50" relative="1" as="geometry">
            <mxPoint x="-345" y="320" as="sourcePoint" />
            <mxPoint x="-304" y="320" as="targetPoint" />
          </mxGeometry>
        </mxCell>
        <mxCell id="aZWMBut40UA3kC536MLn-28" value="file = 8" style="shape=process;whiteSpace=wrap;html=1;backgroundOutline=1;" vertex="1" parent="WIyWlLk6GJQsqaUBKTNV-1">
          <mxGeometry x="-130" y="438" width="110" height="20" as="geometry" />
        </mxCell>
        <mxCell id="aZWMBut40UA3kC536MLn-29" value="" style="endArrow=classic;html=1;rounded=0;exitX=0.5;exitY=1;exitDx=0;exitDy=0;" edge="1" parent="WIyWlLk6GJQsqaUBKTNV-1" source="aZWMBut40UA3kC536MLn-14" target="aZWMBut40UA3kC536MLn-30">
          <mxGeometry width="50" height="50" relative="1" as="geometry">
            <mxPoint x="400" y="320" as="sourcePoint" />
            <mxPoint x="260" y="400" as="targetPoint" />
          </mxGeometry>
        </mxCell>
        <mxCell id="aZWMBut40UA3kC536MLn-30" value="Search Element False mu?" style="rhombus;whiteSpace=wrap;html=1;" vertex="1" parent="WIyWlLk6GJQsqaUBKTNV-1">
          <mxGeometry x="200" y="350" width="120" height="110" as="geometry" />
        </mxCell>
        <mxCell id="aZWMBut40UA3kC536MLn-32" value="Evet" style="endArrow=classic;html=1;rounded=0;exitX=0;exitY=0.5;exitDx=0;exitDy=0;entryX=1;entryY=0.5;entryDx=0;entryDy=0;" edge="1" parent="WIyWlLk6GJQsqaUBKTNV-1" source="aZWMBut40UA3kC536MLn-30" target="aZWMBut40UA3kC536MLn-33">
          <mxGeometry width="50" height="50" relative="1" as="geometry">
            <mxPoint x="360" y="420" as="sourcePoint" />
            <mxPoint x="140" y="405" as="targetPoint" />
          </mxGeometry>
        </mxCell>
        <mxCell id="aZWMBut40UA3kC536MLn-33" value="search = 0" style="shape=process;whiteSpace=wrap;html=1;backgroundOutline=1;" vertex="1" parent="WIyWlLk6GJQsqaUBKTNV-1">
          <mxGeometry x="10" y="395" width="110" height="20" as="geometry" />
        </mxCell>
        <mxCell id="aZWMBut40UA3kC536MLn-34" value="Hayır" style="endArrow=classic;html=1;rounded=0;exitX=0.5;exitY=1;exitDx=0;exitDy=0;" edge="1" parent="WIyWlLk6GJQsqaUBKTNV-1" source="aZWMBut40UA3kC536MLn-30">
          <mxGeometry width="50" height="50" relative="1" as="geometry">
            <mxPoint x="200" y="420" as="sourcePoint" />
            <mxPoint x="260" y="520" as="targetPoint" />
          </mxGeometry>
        </mxCell>
        <mxCell id="aZWMBut40UA3kC536MLn-36" value="Arama fonksiyonu kendisinin mi yoksa arama motoru mu kullanılmış?" style="rhombus;whiteSpace=wrap;html=1;" vertex="1" parent="WIyWlLk6GJQsqaUBKTNV-1">
          <mxGeometry x="192.5" y="522" width="135" height="125" as="geometry" />
        </mxCell>
        <mxCell id="aZWMBut40UA3kC536MLn-37" value="Arama. motoru" style="endArrow=classic;html=1;rounded=0;exitX=0;exitY=0.5;exitDx=0;exitDy=0;entryX=1;entryY=0.5;entryDx=0;entryDy=0;" edge="1" parent="WIyWlLk6GJQsqaUBKTNV-1" target="aZWMBut40UA3kC536MLn-38">
          <mxGeometry width="50" height="50" relative="1" as="geometry">
            <mxPoint x="195" y="585" as="sourcePoint" />
            <mxPoint x="135" y="585" as="targetPoint" />
          </mxGeometry>
        </mxCell>
        <mxCell id="aZWMBut40UA3kC536MLn-38" value="search = 4" style="shape=process;whiteSpace=wrap;html=1;backgroundOutline=1;" vertex="1" parent="WIyWlLk6GJQsqaUBKTNV-1">
          <mxGeometry x="-20" y="575" width="110" height="20" as="geometry" />
        </mxCell>
        <mxCell id="aZWMBut40UA3kC536MLn-39" value="Evet" style="endArrow=classic;html=1;rounded=0;exitX=0.5;exitY=1;exitDx=0;exitDy=0;entryX=0.5;entryY=0;entryDx=0;entryDy=0;" edge="1" parent="WIyWlLk6GJQsqaUBKTNV-1" target="aZWMBut40UA3kC536MLn-40" source="aZWMBut40UA3kC536MLn-36">
          <mxGeometry width="50" height="50" relative="1" as="geometry">
            <mxPoint x="400" y="710" as="sourcePoint" />
            <mxPoint x="340" y="710" as="targetPoint" />
          </mxGeometry>
        </mxCell>
        <mxCell id="aZWMBut40UA3kC536MLn-40" value="search = 2" style="shape=process;whiteSpace=wrap;html=1;backgroundOutline=1;" vertex="1" parent="WIyWlLk6GJQsqaUBKTNV-1">
          <mxGeometry x="205" y="700" width="110" height="20" as="geometry" />
        </mxCell>
      </root>
    </mxGraphModel>
  </diagram>
</mxfile>
